<svg width="32" height="32" viewBox="0 0 32 32" fill="none" xmlns="http://www.w3.org/2000/svg">
<path d="M15.9798 5.00002C13.0405 5.0053 10.3717 6.16358 8.40135 8.04653L6.81726 6.46244C6.14662 5.7918 5 6.26675 5 7.21514V13.1613C5 13.7492 5.47659 14.2258 6.06452 14.2258H12.0107C12.9591 14.2258 13.434 13.0792 12.7634 12.4086L10.9116 10.5567C12.2806 9.27493 14.052 8.5649 15.9339 8.54867C20.0322 8.51327 23.4868 11.8299 23.4513 16.0642C23.4177 20.081 20.1612 23.4516 16 23.4516C14.1758 23.4516 12.4517 22.8006 11.093 21.6084C10.8826 21.4238 10.5649 21.4351 10.367 21.6329L8.60782 23.3921C8.39173 23.6082 8.40242 23.9605 8.6292 24.1654C10.5797 25.9272 13.1646 27 16 27C22.0751 27 27 22.0752 27 16.0001C27 9.93196 22.048 4.98915 15.9798 5.00002Z" fill="#211F29"/>
</svg>
